# xmcd
#
# Track frame offsets:
#	150
#	13376
#	24867
#	38291
#	53465
#	66622
#	80764
#	95646
#	110808
#	123945
#	137143
#	151795
#	164485
#	179340
#	192382
#	203970
#	221731
#	236968
#
# Disc length: 3497 seconds
#
# Revision: 0
# Processed by: cddbd v1.5.1PL0 Copyright (c) Steve Scherf et al.
# Submitted via: dBpowerAMP V4.0
#
DISCID=050da712
DTITLE=Billie Holiday - The memorial album
DYEAR=1999
DGENRE=Blues
TTITLE0=St. Louis Blues
TTITLE1=I hear music
TTITLE2=Georgia on my mind
TTITLE3=Don't explain
TTITLE4=God bless the child
TTITLE5=As times goes by
TTITLE6=Lover come back to me
TTITLE7=Yesterdays
TTITLE8=Let's do it
TTITLE9=I'll get by
TTITLE10=Embraceable you
TTITLE11=I got a right to sing the blues
TTITLE12=Ain't nobody's business
TTITLE13=Summertime
TTITLE14=Love me or leave me
TTITLE15=Comes Love
TTITLE16=Stormy blues
TTITLE17=One for my baby
EXTD=The Memorial album (limited edition black disk]\nuae342020
EXTT0=
EXTT1=
EXTT2=
EXTT3=
EXTT4=
EXTT5=
EXTT6=
EXTT7=
EXTT8=
EXTT9=
EXTT10=
EXTT11=
EXTT12=
EXTT13=
EXTT14=
EXTT15=
EXTT16=
EXTT17=
PLAYORDER=
